# xmcd
#
# Track frame offsets:
# 150
# 14816
# 31397
# 49834
# 65038
# 83950
# 99215
# 115067
# 131369
# 151218
# 165045
# 178737
#
# Disc length: 2578 seconds
#
#
# Revision: 0
# Processed by: cddbd v1.5.1PL2 Copyright (c) Steve Scherf et al.
# Submitted via: FreeRIP 2.945 
#
DISCID=910a100c
DTITLE=Buenas Tchê - Bailanta
DYEAR=1900
DGENRE=Nativista
TTITLE0=Bailanta
TTITLE1=Um novo dia
TTITLE2=Domador de Potro e China
TTITLE3=Pra ficar e bailar
TTITLE4=Esse olhar
TTITLE5=Gaudério da madrugada
TTITLE6=Destino
TTITLE7=Querendo namorá
TTITLE8=Nossa história
TTITLE9=Chaquaiada
TTITLE10=Uzt e meu pingo magrão
TTITLE11=Morena flor
EXTD=
EXTT0=
EXTT1=
EXTT2=
EXTT3=
EXTT4=
EXTT5=
EXTT6=
EXTT7=
EXTT8=
EXTT9=
EXTT10=
EXTT11=
PLAYORDER=
